<svg width="30.000000" height="30.000000" viewBox="0 0 32 32" fill="none" xmlns="http://www.w3.org/2000/svg" xmlns:xlink="http://www.w3.org/1999/xlink">
	<path id="Icon" d="M21.333 2.66663C21.687 2.66663 22.0259 2.8071 22.2759 3.05714L28.9429 9.72382C29.1929 9.97386 29.333 10.313 29.333 10.6666L29.333 20C29.333 20.3119 29.2236 20.6139 29.0239 20.8535L22.3574 28.8535C22.104 29.1575 21.729 29.3333 21.333 29.3333L10.6665 29.3333C10.313 29.3333 9.97363 29.1928 9.72363 28.9428L3.05713 22.2761C2.80713 22.026 2.6665 21.6869 2.6665 21.3333L2.6665 10.6666C2.6665 10.313 2.80713 9.97386 3.05713 9.72382L9.72363 3.05714C9.97363 2.8071 10.313 2.66663 10.6665 2.66663L21.333 2.66663ZM11.2188 5.3333L20.7808 5.3333L26.6665 11.2189L26.6665 19.5172L20.7085 26.6666L11.2188 26.6666L5.33301 20.781L5.33301 11.2189L11.2188 5.3333ZM17.333 9.3333C17.333 8.59691 16.7363 7.99995 16 7.99995C15.2637 7.99995 14.6665 8.59691 14.6665 9.3333L14.6665 17.3333C14.6665 18.0697 15.2637 18.6666 16 18.6666C16.7363 18.6666 17.333 18.0697 17.333 17.3333L17.333 9.3333ZM16 21.3333C16.7363 21.3333 17.333 21.9303 17.333 22.6666C17.333 23.403 16.7363 24 16 24C15.2637 24 14.6665 23.403 14.6665 22.6666C14.6665 21.9303 15.2637 21.3333 16 21.3333Z" clip-rule="evenodd" fill="#fff" fill-opacity="1.000000" fill-rule="evenodd"/>
</svg>
