<svg width="30.000000" height="30.000000" viewBox="0 0 32 32" fill="#B99090FF" xmlns="http://www.w3.org/2000/svg" xmlns:xlink="http://www.w3.org/1999/xlink">
	<path id="Icon" d="M15.22 26.46L9.16 29.79C8.34 30.24 7.33 29.91 6.9 29.06C6.72 28.72 6.66 28.33 6.73 27.95L7.88 20.9C7.98 20.33 7.8 19.75 7.4 19.35L2.5 14.36C1.84 13.68 1.82 12.57 2.47 11.88C2.73 11.61 3.06 11.43 3.43 11.37L10.2 10.34C10.75 10.26 11.22 9.9 11.46 9.39L14.49 2.97C14.9 2.1 15.91 1.75 16.74 2.18C17.07 2.35 17.33 2.63 17.5 2.97L20.53 9.39C20.77 9.9 21.24 10.26 21.79 10.34L28.56 11.37C29.48 11.51 30.11 12.4 29.98 13.35C29.92 13.74 29.75 14.09 29.49 14.36L24.59 19.35C24.19 19.75 24.01 20.33 24.11 20.9L25.26 27.95C25.42 28.9 24.81 29.81 23.9 29.97C23.53 30.03 23.16 29.97 22.83 29.79L16.77 26.46C16.29 26.2 15.7 26.2 15.22 26.46Z" fill-opacity="1.000000" fill-rule="evenodd"/>
</svg>
